<svg width="94" height="30" viewBox="0 0 94 30" fill="none" xmlns="http://www.w3.org/2000/svg">
<path d="M6.16842 7.48655C6.80468 7.48655 7.72164 7.4616 8.9193 7.4117C10.117 7.36179 10.9092 7.33684 11.2959 7.33684H11.8012C13.4355 7.33684 14.6519 7.67368 15.4503 8.34737C16.2487 9.00858 16.648 9.88187 16.648 10.9673C16.648 12.5142 15.6374 13.5871 13.6164 14.186V14.2421C14.7891 14.4168 15.7123 14.8784 16.386 15.6269C17.0721 16.363 17.4152 17.2487 17.4152 18.2842C17.4152 19.669 16.9411 20.7481 15.993 21.5216C15.0573 22.2951 13.6788 22.6819 11.8573 22.6819C11.3583 22.6819 10.5474 22.6382 9.42456 22.5509C8.31423 22.476 7.42846 22.4386 6.76725 22.4386C6.6924 22.4386 6.57388 22.4386 6.4117 22.4386C6.24951 22.4511 6.13099 22.4573 6.05614 22.4573C5.98129 22.2327 5.98129 22.0082 6.05614 21.7836L7.60936 21.5778C7.65926 21.1037 7.68421 20.3739 7.68421 19.3883V8.36608L6.16842 8.17895C6.11852 7.99181 6.11852 7.76101 6.16842 7.48655ZM11.1836 14.8409H9.68655V21.6152C10.3228 21.7275 10.8281 21.7961 11.2023 21.8211C12.7119 21.8211 13.7536 21.5404 14.3275 20.9789C14.9014 20.4051 15.1883 19.5131 15.1883 18.3029C15.1883 17.3298 14.8327 16.5127 14.1216 15.8515C13.423 15.1778 12.4437 14.8409 11.1836 14.8409ZM11.3146 8.12281C10.6908 8.12281 10.1731 8.16647 9.7614 8.2538C9.7115 8.72788 9.68655 9.5076 9.68655 10.593V13.9053H11.1462C12.3064 13.9053 13.1485 13.6682 13.6725 13.1942C14.209 12.7201 14.4772 12.0152 14.4772 11.0795C14.4772 10.1314 14.184 9.40156 13.5977 8.89006C13.0238 8.37856 12.2628 8.12281 11.3146 8.12281Z" fill="#4D2C91"/>
<path d="M27.7291 7.16842C28.9517 7.16842 30.0496 7.38674 31.0227 7.82339C31.9958 8.26004 32.7817 8.84639 33.3805 9.58246C33.9794 10.306 34.4347 11.117 34.7466 12.0152C35.071 12.901 35.2332 13.8304 35.2332 14.8035C35.2332 17.0491 34.5283 18.9454 33.1186 20.4924C31.7088 22.0394 29.9123 22.8129 27.7291 22.8129C26.519 22.8129 25.4273 22.5945 24.4542 22.1579C23.4811 21.7212 22.6952 21.1411 22.0963 20.4175C21.4975 19.6815 21.0359 18.8706 20.7115 17.9848C20.3997 17.099 20.2437 16.1758 20.2437 15.2152C20.2437 13.7805 20.5556 12.4519 21.1794 11.2292C21.8156 10.0066 22.7076 9.02729 23.8554 8.29123C25.0156 7.54269 26.3069 7.16842 27.7291 7.16842ZM27.7104 21.7836C28.8831 21.7836 29.8749 21.4468 30.6858 20.7731C31.5092 20.0869 32.0956 19.2261 32.4449 18.1906C32.8067 17.1552 32.9876 16.0012 32.9876 14.7287C32.9876 13.5185 32.8067 12.4394 32.4449 11.4912C32.0956 10.5306 31.5154 9.74464 30.7045 9.13333C29.8936 8.50955 28.8956 8.19766 27.7104 8.19766C26.0012 8.19766 24.7037 8.82144 23.818 10.069C22.9322 11.3166 22.4893 12.876 22.4893 14.7474C22.4893 16.0324 22.664 17.1926 23.0133 18.2281C23.3626 19.2511 23.9427 20.0994 24.7537 20.7731C25.5646 21.4468 26.5501 21.7836 27.7104 21.7836Z" fill="#4D2C91"/>
<path d="M44.2117 20.1556H44.2304C44.3801 19.5692 44.6234 18.8019 44.9602 17.8538L48.3661 8.36608L46.8503 8.17895C46.8004 7.99181 46.8004 7.76101 46.8503 7.48655C47.5364 7.53645 48.1977 7.5614 48.8339 7.5614C49.3828 7.5614 50.0565 7.54269 50.855 7.50526C50.9298 7.72982 50.9298 7.95439 50.855 8.17895L49.6199 8.40351C49.4203 8.70292 49.1707 9.25809 48.8713 10.069L44.0433 23H43.3883L37.8491 8.36608L36.3333 8.17895C36.2834 7.99181 36.2834 7.76101 36.3333 7.48655C37.0195 7.53645 37.9053 7.5614 38.9906 7.5614C39.9637 7.5614 40.8557 7.54269 41.6667 7.50526C41.7415 7.72982 41.7415 7.95439 41.6667 8.17895L40.1134 8.40351L43.538 17.8538C43.8 18.6148 44.0246 19.3821 44.2117 20.1556Z" fill="#4D2C91"/>
<path d="M56.1156 10.593V21.6152L57.6314 21.8023C57.6813 21.9895 57.6813 22.2203 57.6314 22.4947C56.8455 22.4573 55.9909 22.4386 55.0677 22.4386C54.394 22.4386 53.5332 22.4511 52.4852 22.476C52.4104 22.2515 52.4104 22.0269 52.4852 21.8023L54.0384 21.5778C54.0883 21.1037 54.1133 20.3739 54.1133 19.3883V8.36608L52.5975 8.17895C52.5476 7.99181 52.5476 7.76101 52.5975 7.48655C53.2837 7.53645 54.1382 7.5614 55.1612 7.5614C56.072 7.5614 56.9328 7.54269 57.7437 7.50526C57.8186 7.72982 57.8186 7.95439 57.7437 8.17895L56.1905 8.40351C56.1406 8.87758 56.1156 9.60741 56.1156 10.593Z" fill="#4D2C91"/>
<path d="M60.0646 7.54269H72.9956L73.0143 11.8842C72.7398 11.9341 72.509 11.9341 72.3219 11.8842L71.4424 8.49708H67.55V21.6152L69.44 21.8023C69.4899 21.9895 69.4899 22.2203 69.44 22.4947C68.6541 22.4573 67.7059 22.4386 66.5956 22.4386C65.7348 22.4386 64.7804 22.4511 63.7324 22.476C63.6576 22.2515 63.6576 22.0269 63.7324 21.8023L65.4728 21.5778C65.5227 21.1037 65.5476 20.3739 65.5476 19.3883V8.49708H61.6178L60.7383 11.8842C60.5512 11.9341 60.3204 11.9341 60.0459 11.8842L60.0646 7.54269Z" fill="#4D2C91"/>
<path d="M75.6253 21.6152L77.1411 21.8023C77.191 21.9895 77.191 22.2203 77.1411 22.4947C76.3551 22.4573 75.6939 22.4386 75.1574 22.4386C74.858 22.4386 74.1843 22.4511 73.1364 22.476C73.0615 22.2515 73.0615 22.0269 73.1364 21.8023L74.3715 21.5778C74.5711 21.2784 74.8206 20.7232 75.12 19.9123L79.9481 7H80.6031L86.0299 21.6152L87.5457 21.8023C87.5956 21.9895 87.5956 22.2203 87.5457 22.4947C86.7598 22.4573 85.8802 22.4386 84.9071 22.4386C84.1836 22.4386 83.2978 22.4511 82.2498 22.476C82.175 22.2515 82.175 22.0269 82.2498 21.8023L83.803 21.5778L82.1563 16.9556H77.2908L75.6253 21.6152ZM79.7797 9.82573H79.7609C79.6112 10.4121 79.368 11.1793 79.0311 12.1275L77.6276 16.0199H81.8194L80.4533 12.1275C80.1914 11.3665 79.9668 10.5992 79.7797 9.82573Z" fill="#4D2C91"/>
</svg>
